<?xml version="1.0" encoding="UTF-8"?>
<svg width="36px" height="21px" viewBox="0 0 36 21" version="1.1" xmlns="http://www.w3.org/2000/svg" xmlns:xlink="http://www.w3.org/1999/xlink">
    <!-- Generator: Sketch 58 (84663) - https://sketch.com -->
    <title>vk</title>
    <desc>Created with Sketch.</desc>
    <g id="Page-1" stroke="none" stroke-width="1" fill="none" fill-rule="evenodd">
        <g id="vk" fill="#CCCCCC" fill-rule="nonzero">
            <path d="M33.8772857,16.2563337 C34.341754,16.8162503 34.7814894,17.394049 35.1178806,18.0438402 C35.5945413,18.9675516 35.1628179,19.9840406 34.3345548,20.0391962 L29.1859231,20.0368739 C27.8580081,20.147069 26.7986719,19.6124659 25.9079377,18.7045464 C25.1950949,17.9784663 24.5349693,17.205707 23.8495301,16.4551262 C23.5685267,16.1483448 23.2744022,15.8596778 22.9230318,15.6315077 C22.2201751,15.1752836 21.6100959,15.3149725 21.2084469,16.0480197 C20.7993664,16.7936075 20.7065889,17.6192 20.6664124,18.4501339 C20.6112567,19.6625124 20.2447912,19.9812538 19.0269552,20.0367578 C16.4243068,20.1594935 13.9542641,19.7657405 11.6596743,18.4528046 C9.63668244,17.2953494 8.06794058,15.6613498 6.70251975,13.8114885 C4.04401903,10.2094203 2.00813813,6.25133711 0.17836506,2.18236212 C-0.233502251,1.26561771 0.067705475,0.773513494 1.07920143,0.756095931 C2.7588351,0.72346703 4.43823654,0.725789371 6.1198442,0.753773589 C6.80249656,0.763759659 7.25442427,1.15530648 7.51801006,1.80022078 C8.42674238,4.0346619 9.53867961,6.16053354 10.934407,8.13104052 C11.3060978,8.65565752 11.685104,9.18027453 12.2248162,9.54952686 C12.8218903,9.95837513 13.2764887,9.82286649 13.5573759,9.15774781 C13.7356156,8.73601055 13.8136463,8.2817605 13.8538228,7.83006503 C13.986893,6.27607005 14.0044267,4.72474575 13.7710313,3.17620827 C13.6277429,2.20976575 13.083386,1.58412688 12.1190335,1.40124247 C11.6269293,1.30800045 11.7001992,1.1248838 11.9384715,0.843996567 C12.3523128,0.359556077 12.7415372,0.058 13.5174316,0.058 L19.336175,0.058 C20.2522227,0.238794306 20.4556598,0.650313264 20.5810663,1.57205071 L20.5860593,8.03547616 C20.5760733,8.39230397 20.7642991,9.45117569 21.4070071,9.68735785 C21.9214058,9.85549539 22.2604677,9.44397643 22.569107,9.11780353 C23.9622798,7.63916854 24.9565904,5.89172249 25.8448861,4.08226991 C26.2391036,3.28663562 26.5780494,2.46034643 26.9065447,1.63475393 C27.1499261,1.02212018 27.5318352,0.720680219 28.221919,0.734033685 L33.82213,0.739026719 C33.9881775,0.739026719 34.1561989,0.741465178 34.3170211,0.768984928 C35.2607046,0.929807094 35.5192974,1.33575243 35.2278435,2.25725764 C34.7686004,3.7030315 33.8750794,4.9078624 33.0014145,6.11826692 C32.0674847,7.41053399 31.0686455,8.65856045 30.1424957,9.95849125 C29.2915896,11.1455562 29.3591698,11.7439076 30.4161836,12.7749112 C31.5885017,13.9194773 32.8258454,14.9963472 33.8772857,16.2563337 Z" id="XMLID_807_"></path>
        </g>
    </g>
</svg>